<?xml version="1.0" encoding="utf-8"?>
<svg xmlns="http://www.w3.org/2000/svg" width="640" height="480" viewBox="0 0 640 480">
  <defs>
    <linearGradient id="g1" x1="0" x2="1">
      <stop offset="0" stop-color="#18314f"/>
      <stop offset="1" stop-color="#2b2b78"/>
    </linearGradient>
  </defs>
  <rect width="100%" height="100%" fill="url(#g1)" rx="16"/>
  <g transform="translate(40,40)">
    <rect x="0" y="0" width="420" height="320" rx="12" fill="#ffffff" opacity="0.06"/>
    <g transform="translate(16,16) scale(0.9)">
      <rect x="0" y="0" width="360" height="220" rx="8" fill="#ffffff" opacity="0.06"/>
      <rect x="12" y="12" width="120" height="16" rx="6" fill="#86c0ff" opacity="0.9"/>
      <rect x="12" y="36" width="320" height="12" rx="6" fill="#bde3ff" opacity="0.7"/>
      <rect x="12" y="56" width="320" height="12" rx="6" fill="#bde3ff" opacity="0.7"/>
      <rect x="12" y="80" width="320" height="12" rx="6" fill="#bde3ff" opacity="0.7"/>
    </g>
    <g transform="translate(280,80)">
      <rect x="0" y="0" width="180" height="120" rx="8" fill="#fff" opacity="0.95"/>
      <rect x="12" y="12" width="156" height="16" rx="6" fill="#86c0ff"/>
      <rect x="12" y="36" width="156" height="8" rx="4" fill="#dfefff"/>
    </g>
    <text x="230" y="300" font-family="Verdana, Arial, sans-serif" font-size="14" fill="#bde3ff">gallery-placeholder.svg — replace with your image</text>
  </g>
</svg>